<?xml version="1.0" encoding="UTF-8" standalone="no"?>
<!DOCTYPE svg PUBLIC "-//W3C//DTD SVG 1.1//EN" "http://www.w3.org/Graphics/SVG/1.1/DTD/svg11.dtd">
<svg width="100%" height="100%" viewBox="0 0 34 39" version="1.1" xmlns="http://www.w3.org/2000/svg" xmlns:xlink="http://www.w3.org/1999/xlink" xml:space="preserve" xmlns:serif="http://www.serif.com/" style="fill-rule:evenodd;clip-rule:evenodd;stroke-miterlimit:10;">
    <g transform="matrix(1.77273,0,0,1.77273,-2081.75,-308.144)">
        <g>
            <g transform="matrix(1,0,0,1,1178.74,195.824)">
                <g>
                    <clipPath id="_clip1">
                        <path d="M0,-18.118C-0.714,-18.118 -1.294,-17.538 -1.294,-16.823L-1.294,-1.294C-1.294,-0.579 -0.714,0.001 0,0.001L10.353,0.001C11.068,0.001 11.648,-0.579 11.648,-1.294L11.648,-16.823C11.648,-17.538 11.068,-18.118 10.353,-18.118L0,-18.118Z"/>
                    </clipPath>
                    <g clip-path="url(#_clip1)">
                        <path d="M0,-18.118L10.353,-18.118C11.067,-18.118 11.647,-17.538 11.647,-16.824L11.647,-1.294C11.647,-0.58 11.067,0 10.353,0L0,0C-0.715,0 -1.294,-0.58 -1.294,-1.294L-1.294,-16.824C-1.294,-17.538 -0.715,-18.118 0,-18.118Z" style="fill:none;fill-rule:nonzero;stroke:rgb(244,88,63);stroke-width:2px;"/>
                    </g>
                </g>
            </g>
            <g transform="matrix(0,1,1,0,1187.22,186.765)">
                <path d="M-5.177,-5.177L5.177,-5.177" style="fill:none;fill-rule:nonzero;stroke:rgb(244,88,63);stroke-width:1px;stroke-linecap:round;"/>
            </g>
            <g transform="matrix(0,1,1,0,1191.03,186.765)">
                <path d="M-5.177,-5.177L5.177,-5.177" style="fill:none;fill-rule:nonzero;stroke:rgb(244,88,63);stroke-width:1px;stroke-linecap:round;"/>
            </g>
            <g transform="matrix(1,0,0,1,1175.5,178.354)">
                <path d="M0,0L16.823,0" style="fill:none;fill-rule:nonzero;stroke:rgb(244,88,63);stroke-width:1px;stroke-linecap:round;"/>
            </g>
            <g transform="matrix(1,0,0,1,1182.62,179)">
                <g>
                    <clipPath id="_clip2">
                        <path d="M0,-5.176C-1.428,-5.176 -2.587,-4.017 -2.587,-2.588L-2.587,0.001L5.177,0.001L5.177,-2.588C5.177,-4.017 4.019,-5.176 2.589,-5.176L0,-5.176Z"/>
                    </clipPath>
                    <g clip-path="url(#_clip2)">
                        <path d="M0,-5.176L2.589,-5.176C4.019,-5.176 5.177,-4.017 5.177,-2.588L5.177,0L-2.588,0L-2.588,-2.588C-2.588,-4.017 -1.429,-5.176 0,-5.176Z" style="fill:none;fill-rule:nonzero;stroke:rgb(244,88,63);stroke-width:2px;stroke-linecap:round;stroke-linejoin:round;"/>
                    </g>
                </g>
            </g>
        </g>
    </g>
</svg>
